<svg xmlns="http://www.w3.org/2000/svg" viewBox="0 0 120 120">
  <rect width="120" height="120" rx="16" fill="#1b2430"/>
  <!-- sleeves -->
  <path d="M40 36 L22 46 L28 84 L40 78 Z" fill="#6f99c2"/>
  <path d="M80 36 L98 46 L92 84 L80 78 Z" fill="#6f99c2"/>
  <!-- body -->
  <path d="M40 36 L36 98 Q36 102 40 102 L80 102 Q84 102 84 98 L80 36 L70 30 L50 30 Z" fill="#8fb6dc"/>
  <!-- placket -->
  <rect x="58" y="38" width="4" height="62" fill="#6f99c2"/>
  <circle cx="60" cy="50" r="1.8" fill="#f3ede2"/>
  <circle cx="60" cy="64" r="1.8" fill="#f3ede2"/>
  <circle cx="60" cy="78" r="1.8" fill="#f3ede2"/>
  <circle cx="60" cy="92" r="1.8" fill="#f3ede2"/>
  <!-- collar: two button-down points -->
  <path d="M50 30 L60 42 L52 46 L46 36 Z" fill="#a5c6e6"/>
  <path d="M70 30 L60 42 L68 46 L74 36 Z" fill="#a5c6e6"/>
  <circle cx="52.5" cy="44" r="1.3" fill="#f3ede2"/>
  <circle cx="67.5" cy="44" r="1.3" fill="#f3ede2"/>
  <!-- chest pocket -->
  <path d="M68 56 h8 v9 l-4 2 -4 -2 Z" fill="#6f99c2"/>
</svg>
